<svg preserveAspectRatio="xMidYMid meet" data-bbox="2.5 2.5 169.98 169.98" viewBox="0 0 174.98 174.98" xmlns="http://www.w3.org/2000/svg" data-type="ugc" role="presentation" aria-hidden="true" aria-label="">
    <g>
        <path stroke="#8936ff" stroke-miterlimit="10" stroke-width="5" fill="#ffffff" d="M172.48 87.49c0 46.939-38.051 84.99-84.99 84.99S2.5 134.429 2.5 87.49 40.551 2.5 87.49 2.5s84.99 38.051 84.99 84.99z"></path>
        <path d="m128.79 31.3-1.04-.71.24-3.04-.81-.55-1.49 2.19-.94-.64 3.66-5.4 2.79 1.89c.27.68.26 1.46-.24 2.18-.49.73-1.21 1.02-1.94 1.03l-.24 3.04Zm-1.02-5.15 1.43.97c.33-.04.6-.18.83-.52s.26-.65.18-.97l-1.43-.97z" fill="#000000"></path>
        <path d="m130.81 32.9 4.18-5.01 2.69 2.24-.67.8-1.82-1.51-.95 1.14 1.67 1.39-.67.8-1.67-1.39-1.23 1.47 1.82 1.51-.67.8-2.69-2.24Z" fill="#000000"></path>
        <path d="m136.78 38.24 2.89-6.37.85.86-2.21 4.77 4.8-2.14.81.82-6.41 2.79-.73-.74Z" fill="#000000"></path>
        <path d="M143.06 40.13a3.35 3.35 0 0 1 4.71.6c1.14 1.47.87 3.58-.6 4.71a3.35 3.35 0 0 1-4.71-.6 3.35 3.35 0 0 1 .6-4.71m3.39 4.37c1-.77 1.16-2.13.42-3.08-.74-.96-2.1-1.13-3.09-.36-.98.76-1.17 2.12-.42 3.08.74.95 2.11 1.12 3.09.36" fill="#000000"></path>
        <path d="m146.06 49.71 5.55-3.43.6.96-4.66 2.89 1.14 1.85-.88.55-1.74-2.81Z" fill="#000000"></path>
        <path d="m151.29 53.4 3.53-1.72.5 1.02-3.36 1.63c-.81.39-1.34 1.23-.85 2.25s1.49 1.12 2.3.72l3.36-1.63.5 1.02-3.53 1.72c-1.19.58-2.82.35-3.64-1.33s.01-3.11 1.2-3.69Z" fill="#000000"></path>
        <path d="m152.96 63.6 5.17-1.84-.64-1.79.98-.35 1.66 4.65-.98.35-.64-1.79-5.17 1.84z" fill="#000000"></path>
        <path d="m154.61 68.72 6.3-1.71.3 1.09-6.3 1.71z" fill="#000000"></path>
        <path d="M158.82 71.84c1.83-.31 3.56.92 3.87 2.75s-.92 3.56-2.75 3.87-3.56-.92-3.87-2.75.92-3.56 2.75-3.87m.93 5.45c1.24-.21 2.03-1.33 1.83-2.52s-1.32-1.98-2.56-1.77c-1.22.21-2.03 1.32-1.83 2.52.2 1.18 1.33 1.98 2.56 1.77" fill="#000000"></path>
        <path d="m156.98 81.73 6.52-.27.04 1.04-4.48 3.64 4.63-.19.05 1.09-6.52.27-.04-1.04 4.48-3.64-4.63.19z" fill="#000000"></path>
        <path d="m157.11 90.34 6.52.32-.05 1.13-6.52-.32.06-1.13Z" fill="#000000"></path>
        <path d="m156.9 94 .89.12 4.11 3.99.42-3.27 1.03.13-.6 4.69-.89-.11-4.11-3.99-.45 3.5-1.03-.13z" fill="#000000"></path>
        <path d="m155.76 101.45 6.38 1.36-.24 1.11-6.38-1.36z" fill="#000000"></path>
        <path d="m154.86 105.52 6.23 1.94-.31.99-5.45 1.92 4.43 1.38-.32 1.04-6.23-1.94.31-.99 5.45-1.92-4.43-1.38z" fill="#000000"></path>
        <path d="m154.22 117.55-1.17 2.59-2.99-1.36c.12-.79.25-1.31.59-2.07.92-2.03 2.89-2.74 4.58-1.98 1.69.77 2.46 2.71 1.58 4.66-.27.59-.61 1.12-1.01 1.47l-1.12-.51c.48-.42.85-.89 1.11-1.47.58-1.28.1-2.55-1.05-3.07s-2.47-.06-3.08 1.3c-.15.34-.27.67-.34.99l1.25.57.7-1.55z" fill="#000000"></path>
        <path d="M145.88 129.03a2.35 2.35 0 0 1-1.05-1.93l1.98-2.99 5.44 3.6-1.75 2.65c-.68.28-1.45.28-2.11-.16-.35-.23-.57-.57-.69-.92-.6.23-1.26.12-1.82-.25m.12-1.81c.05.33.23.63.53.83s.65.25.97.16l1.05-1.58-1.5-.99-1.05 1.59Zm4.76.86-1.34-.89-.82 1.25c.04.34.15.58.45.77s.56.21.89.11l.83-1.25Z" fill="#000000"></path>
        <path d="m139.54 133.87.8-.97 3 .53.62-.75-2.04-1.69.72-.88 5.03 4.16-2.15 2.6c-.71.2-1.47.12-2.15-.44s-.9-1.3-.84-2.03l-3-.53Zm5.23-.53-1.1 1.33c.01.33.13.62.44.88s.62.32.95.27l1.1-1.33-1.39-1.14Z" fill="#000000"></path>
        <path d="m134.43 139.02 2.03.84 1.89-1.84-.77-2.07.83-.8 2.48 6.7-.75.72-6.59-2.71.87-.84Zm4.3.02-1.26 1.23 2.02.83z" fill="#000000"></path>
        <path d="m131.79 141.33 3.95 5.2-.83.63-5.55-1.6 2.8 3.69-.87.66-3.95-5.2.83-.63 5.55 1.61-2.8-3.69.87-.66Z" fill="#000000"></path>
        <path d="m124.75 146.43 3.29 5.64-3.14 1.83c-1.32.07-2.68-.54-3.41-1.79s-.59-2.74.12-3.85zm-.45 1.47-1.76 1.02c-.48.75-.52 1.75-.03 2.59s1.37 1.3 2.26 1.26l1.76-1.02-2.24-3.84Z" fill="#000000"></path>
        <path d="m114.56 151.73 2.39 6.08-3.26 1.28-.38-.97 2.2-.87-.54-1.38-2.02.8-.38-.97 2.03-.8-.7-1.79-2.2.87-.38-.97 3.26-1.28Z" fill="#000000"></path>
        <path d="m108.63 153.95 1.73 6.3-1 .28-4.56-3.56 1.23 4.47-1.05.29-1.73-6.3 1-.28 4.56 3.56-1.23-4.47z" fill="#000000"></path>
        <path d="m98.11 159.89-2.81.4-.47-3.25c.73-.32 1.24-.49 2.06-.61 2.21-.32 3.87.97 4.13 2.8.26 1.84-.97 3.53-3.08 3.84-.64.09-1.27.09-1.78-.06l-.17-1.22c.62.18 1.21.24 1.84.15 1.39-.2 2.21-1.29 2.03-2.54s-1.28-2.11-2.76-1.9q-.555.075-1.02.24l.2 1.36 1.69-.24.15 1.03Z" fill="#000000"></path>
        <path d="m86.97 157.19.92 2 2.64-.06.84-2.04 1.15-.03-2.74 6.59-1.04.02-2.99-6.46 1.21-.03Zm3.14 2.94-1.76.04.92 1.99z" fill="#000000"></path>
        <path d="m80.65 160.34-2.82-.27.31-3.27c.78-.14 1.32-.19 2.15-.11 2.22.21 3.53 1.84 3.36 3.69-.17 1.84-1.76 3.21-3.89 3.01-.64-.06-1.25-.21-1.71-.47l.12-1.22c.56.32 1.12.51 1.75.57 1.39.13 2.44-.74 2.56-1.99s-.75-2.35-2.24-2.49c-.37-.03-.72-.04-1.04 0l-.13 1.37 1.69.16-.1 1.04Z" fill="#000000"></path>
        <path d="m75.13 156.09-1.31 6.39-3.43-.7.21-1.02 2.32.47.3-1.45-2.13-.43.21-1.02 2.13.44.38-1.88-2.32-.47.21-1.02 3.43.7Z" fill="#000000"></path>
        <path d="m69.09 154.8-2.3 6.12-1.03-.34-.78-4.77-3.46 3.37-1.03-.34 1.78-6.29 1.08.36-1.18 4.19 3.52-3.42.79 4.84 1.54-4.08 1.08.36Z" fill="#000000"></path>
        <path d="m59.63 151.39-2.75 5.92-3.17-1.47.44-.94 2.14 1 .63-1.35-1.97-.92.44-.94 1.97.92.81-1.74-2.14-1 .44-.94 3.17 1.47Z" fill="#000000"></path>
        <path d="m53.9 148.61-3.38 5.59-.89-.54-.56-5.76-2.4 3.97-.93-.56 3.38-5.59.89.54.56 5.76 2.4-3.97z" fill="#000000"></path>
        <path d="m45.63 143.19-3.34 4.35 1.51 1.16-.63.83-3.92-3 .63-.83 1.51 1.16 3.34-4.35.9.69Z" fill="#000000"></path>
        <path d="m38.97 137.6-4.57 4.67-.78-.83 3.04-3.11-4.73 1.32 1.62-4.63-3.3 2.84-.78-.83 4.95-4.26.74.79-1.6 4.56 4.65-1.3.74.79Z" fill="#000000"></path>
        <path d="m32.51 130.29-5.18 3.97-.69-.9 5.18-3.97z" fill="#000000"></path>
        <path d="m29.36 125.91-4.6 2.99 1.04 1.59-.87.57-2.69-4.14.87-.57 1.04 1.59 4.6-2.99.62.95Z" fill="#000000"></path>
        <path d="m26.48 121.28-5.83 2.94-.51-1.01 2.26-1.14-1.49-2.96-2.26 1.14-.51-1.01 5.83-2.94.51 1.01-2.65 1.33 1.49 2.96 2.65-1.33z" fill="#000000"></path>
        <path d="m21.72 110.55-6.18 2.11-.37-1.08 6.18-2.11.37 1.07Z" fill="#000000"></path>
        <path d="m20.43 106.77-6.42 1.21-.25-1.06 3.67-3.14-4.68-1.21-.25-1.06 6.3-1.74.26 1.11-4.2 1.17 4.75 1.23-3.73 3.2 4.28-.8.26 1.11Z" fill="#000000"></path>
        <path d="m18.37 97.04-6.53.27-.09-1.08 4.08-2.58-4.46-1.87-.09-1.08 6.48-.82.09 1.13-4.32.55 4.53 1.9-4.15 2.63 4.35-.18.09 1.13Z" fill="#000000"></path>
        <path d="m17.8 86.96-6.53-.2.11-3.5 1.04.03-.07 2.37 1.49.05.07-2.18 1.04.03-.07 2.18 1.92.06.07-2.37 1.04.03z" fill="#000000"></path>
        <path d="m18.75 75.8-.16 1.25-2.82 1.15-.13.97 2.63.34-.15 1.13-6.47-.84.43-3.34c.49-.55 1.18-.89 2.06-.77.87.11 1.46.62 1.79 1.27l2.82-1.15Zm-4.15 3.24.22-1.72c-.18-.27-.44-.46-.84-.51s-.7.06-.94.28l-.22 1.72z" fill="#000000"></path>
        <path d="m18.93 73.51-1.04-.24c.29-.29.67-.98.79-1.51.17-.72-.11-1.15-.58-1.26-1.25-.29-1.62 2.44-3.59 1.98-.9-.21-1.62-1.08-1.3-2.5.11-.46.32-.97.64-1.3l1.06.25c-.44.43-.65.92-.73 1.27-.16.7.15 1.04.51 1.13 1.16.27 1.62-2.46 3.57-2.01.9.21 1.76 1 1.37 2.67-.15.66-.44 1.17-.71 1.52Z" fill="#000000"></path>
        <path d="m20.81 67.21-6.23-1.95.34-1.08 6.23 1.95z" fill="#000000"></path>
        <path d="m22.75 61.68-6.99-.14.46-1.12 5.25.15-3.86-3.56.44-1.07 5.1 4.79-.39.96Z" fill="#000000"></path>
        <path d="m25.1 56.4-5.77-3.05 1.64-3.09.92.49-1.11 2.09 1.31.7 1.02-1.92.92.49-1.02 1.92 1.7.9 1.11-2.09.92.49-1.64 3.09Z" fill="#000000"></path>
        <path d="m30.62 47.23-4.45-3.21-1.11 1.54-.84-.61 2.89-4.01.84.61-1.11 1.54 4.45 3.21-.66.92Z" fill="#000000"></path>
        <path d="m33.9 42.93-4.92-4.29 2.3-2.64.78.68-1.56 1.78 1.12.98 1.43-1.64.78.68-1.43 1.64 1.45 1.26 1.56-1.78.78.68-2.3 2.64Z" fill="#000000"></path>
        <path d="M35.64 36.13c-1.27-1.35-1.23-3.44.32-4.91.47-.44.92-.73 1.42-.91l.84.9c-.61.21-1.06.43-1.52.87-1.02.96-1.06 2.32-.2 3.24s2.22.96 3.24 0c.46-.43.72-.87.96-1.46l.84.9c-.2.49-.52.92-.99 1.36-1.56 1.46-3.65 1.36-4.92 0Z" fill="#000000"></path>
        <path d="m43.85 33.1-3.89-5.24.91-.68 1.5 2.03 2.66-1.97-1.5-2.03.91-.68 3.88 5.24-.91.68-1.76-2.38-2.66 1.97 1.76 2.38-.91.68Z" fill="#000000"></path>
        <path d="m65.51 17.98 3.02 2.53-2.57.88-2-1.67-.36.12.72 2.11-2.24.76-2.11-6.18 2.24-.76.75 2.19.36-.12.55-2.64 2.43-.83z" fill="#000000"></path>
        <path d="m75.07 19.09-.78-1.13-1.88.38-.28 1.34-2.42.49 1.44-6.95 2.5-.5 4 5.86-2.58.52Zm-2.43-1.85 1.02-.2-.75-1.09-.27 1.3Z" fill="#000000"></path>
        <path d="m80.02 18.39-.38-4.3-1.55.14-.2-2.19 5.46-.49.2 2.19-1.54.14.38 4.3-2.36.21Z" fill="#000000"></path>
        <path d="M85.88 14.7c.03-1.92 1.47-3.4 3.75-3.37.6 0 1.22.11 1.58.24l-.04 2.33c-.38-.18-.8-.3-1.29-.3-1-.02-1.52.49-1.53 1.14 0 .65.49 1.17 1.5 1.19.49 0 .92-.1 1.3-.26L91.11 18c-.37.12-1 .2-1.59.19-2.28-.04-3.67-1.56-3.64-3.48Z" fill="#000000"></path>
        <path d="m93.5 18.17.87-6.46 2.34.32-.27 1.98 2 .27.27-1.98 2.34.32-.87 6.46-2.34-.32.31-2.3-2-.27-.31 2.3z" fill="#000000"></path>
        <path d="m102.51 19.61 1.51-6.35 2.3.54-1.51 6.35z" fill="#000000"></path>
        <path d="m108.34 21.17 1.37-4.1-1.48-.49.7-2.09 5.2 1.73-.7 2.09-1.47-.49-1.37 4.1z" fill="#000000"></path>
        <path fill="#000000" d="M120.8 21.68a1.36 1.36 0 1 1-2.72 0 1.36 1.36 0 0 1 2.72 0"></path>
        <path fill="#000000" d="M54.31 21.68a1.36 1.36 0 1 1-2.72 0 1.36 1.36 0 0 1 2.72 0"></path>
        <path fill="#8936ff" d="M150.56 87.49c0 34.833-28.237 63.07-63.07 63.07s-63.07-28.237-63.07-63.07 28.237-63.07 63.07-63.07 63.07 28.237 63.07 63.07"></path>
        <path fill="#ffffff" d="M113.63 79.04h-26.6l-5.35 8.12h-3.01v-33.4h-25.9v68.29h25.9v-16.99h3.01l12.55 16.99h27.98l-17.69-26.92z"></path>
        <path d="M113.63 63.86c0-6.68-5.2-11.91-12.04-11.84-6.42.07-11.48 5.35-11.48 11.8 0 6.44 5.03 11.75 11.71 11.85 6.47.1 11.82-5.32 11.82-11.81Z" fill="#000000"></path>
    </g>
</svg>